<?xml version="1.0" encoding="UTF-8" standalone="no"?>
<!-- Created with Inkscape (http://www.inkscape.org/) -->
<svg
   xmlns:svg="http://www.w3.org/2000/svg"
   xmlns="http://www.w3.org/2000/svg"
   version="1.0"
   width="689"
   height="494"
   viewBox="0 0 1 1"
   id="body">
  <defs
     id="defs304" />
  <title
     id="title3">SVG drawing</title>
  <desc
     id="desc5">This was produced by version 4.2 of GNU libplot, a free library for exporting 2-D vector graphics.</desc>
  <rect
     width="1.3947369"
     height="1"
     x="-0.19736843"
     y="-2.0816682e-17"
     style="fill:#ffffff;stroke:none"
     id="background" />
  <g
     transform="matrix(0,2.5276059e-3,2.5297649e-3,0,-0.21256,-3.7027566e-2)"
     style="font-style:normal;font-variant:normal;font-weight:normal;font-stretch:normal;letter-spacing:normal;word-spacing:normal;text-anchor:start;fill:none;fill-opacity:1;stroke:#000000;stroke-linecap:butt;stroke-linejoin:miter;stroke-miterlimit:10.43299961;stroke-dasharray:none;stroke-dashoffset:0;stroke-opacity:1"
     id="content"
     xml:space="preserve">
<polygon
   points="53.07,96 53.098,98.238 53.207,100.49 53.387,102.71 53.645,104.94 53.961,107.16 54.359,109.37 54.828,111.57 55.367,113.73 55.977,115.89 56.656,118.03 57.406,120.14 58.215,122.23 59.094,124.29 60.043,126.32 61.062,128.33 62.141,130.29 63.277,132.21 64.484,134.11 65.742,135.96 67.059,137.77 68.445,139.54 69.883,141.26 71.371,142.94 72.918,144.55 74.508,146.13 76.156,147.65 77.855,149.12 79.594,150.53 81.383,151.89 83.223,153.18 85.09,154.41 86.996,155.58 88.945,156.7 122.34,95.941 53.07,96 "
   style="fill:#ff0000;fill-rule:nonzero;stroke:#ff0000;stroke-width:0;stroke-linejoin:round"
   id="polygon9" />
<polygon
   points="53.07,96 53.098,98.238 53.207,100.49 53.387,102.71 53.645,104.94 53.961,107.16 54.359,109.37 54.828,111.57 55.367,113.73 55.977,115.89 56.656,118.03 57.406,120.14 58.215,122.23 59.094,124.29 60.043,126.32 61.062,128.33 62.141,130.29 63.277,132.21 64.484,134.11 65.742,135.96 67.059,137.77 68.445,139.54 69.883,141.26 71.371,142.94 72.918,144.55 74.508,146.13 76.156,147.65 77.855,149.12 79.594,150.53 81.383,151.89 83.223,153.18 85.09,154.41 86.996,155.58 88.945,156.7 122.34,95.941 53.07,96 "
   style="stroke-width:0.75;stroke-linejoin:round"
   id="polygon11" />
<line
   x1="62.723"
   y1="131.28999"
   x2="59.745998"
   y2="133.06"
   id="line13"
   style="stroke-width:0.75;stroke-linecap:round" />
<text
   transform="matrix(0,0.6,0.6,0,60.973,134.82)"
   style="font-size:20px;fill:#000000;stroke:none;font-family:Helvetica, sans-serif"
   id="text15">1</text>

<polygon
   points="89,156.76 91.039,157.82 93.105,158.83 95.215,159.77 97.344,160.64 99.512,161.43 101.7,162.15 103.91,162.81 106.13,163.38 108.38,163.88 110.65,164.3 112.93,164.66 115.22,164.93 117.52,165.13 119.81,165.26 122.11,165.3 124.42,165.27 126.71,165.17 129.01,164.98 131.3,164.73 133.59,164.4 135.85,163.99 138.1,163.5 140.34,162.95 142.55,162.31 144.75,161.61 146.92,160.82 149.05,159.97 151.16,159.05 153.24,158.05 155.29,157 157.3,155.87 159.27,154.68 161.2,153.42 163.08,152.09 122.33,96.004 89,156.76 "
   style="fill:#0000ff;fill-rule:nonzero;stroke:#0000ff;stroke-width:0;stroke-linejoin:round"
   id="polygon17" />
<polygon
   points="89,156.76 91.039,157.82 93.105,158.83 95.215,159.77 97.344,160.64 99.512,161.43 101.7,162.15 103.91,162.81 106.13,163.38 108.38,163.88 110.65,164.3 112.93,164.66 115.22,164.93 117.52,165.13 119.81,165.26 122.11,165.3 124.42,165.27 126.71,165.17 129.01,164.98 131.3,164.73 133.59,164.4 135.85,163.99 138.1,163.5 140.34,162.95 142.55,162.31 144.75,161.61 146.92,160.82 149.05,159.97 151.16,159.05 153.24,158.05 155.29,157 157.3,155.87 159.27,154.68 161.2,153.42 163.08,152.09 122.33,96.004 89,156.76 "
   style="stroke-width:0.75;stroke-linejoin:round"
   id="polygon19" />
<line
   x1="126.75"
   y1="165.2"
   x2="126.97"
   y2="168.66"
   id="line21"
   style="stroke-width:0.75;stroke-linecap:round" />
<text
   transform="matrix(0,0.6,0.6,0,131.41,172.12)"
   style="font-size:20px;fill:#000000;stroke:none;font-family:Helvetica, sans-serif"
   id="text23">2</text>

<polygon
   points="163.15,152.09 164.94,150.75 166.68,149.35 168.38,147.9 170.02,146.4 171.61,144.84 173.16,143.23 174.66,141.57 176.1,139.86 177.48,138.11 178.8,136.32 180.07,134.48 181.28,132.6 182.42,130.69 183.51,128.73 184.53,126.76 185.48,124.74 186.37,122.69 187.2,120.62 187.96,118.52 188.65,116.4 189.26,114.25 189.81,112.09 190.29,109.91 190.69,107.71 191.03,105.51 191.3,103.3 191.5,101.07 191.63,98.848 191.68,96.621 191.66,94.383 191.57,92.156 191.41,89.93 191.18,87.711 190.88,85.504 190.51,83.305 190.06,81.117 189.54,78.949 188.96,76.793 188.3,74.656 122.37,96.086 163.15,152.09 "
   style="fill:#00ff00;fill-rule:nonzero;stroke:#00ff00;stroke-width:0;stroke-linejoin:round"
   id="polygon25" />
<polygon
   points="163.15,152.09 164.94,150.75 166.68,149.35 168.38,147.9 170.02,146.4 171.61,144.84 173.16,143.23 174.66,141.57 176.1,139.86 177.48,138.11 178.8,136.32 180.07,134.48 181.28,132.6 182.42,130.69 183.51,128.73 184.53,126.76 185.48,124.74 186.37,122.69 187.2,120.62 187.96,118.52 188.65,116.4 189.26,114.25 189.81,112.09 190.29,109.91 190.69,107.71 191.03,105.51 191.3,103.3 191.5,101.07 191.63,98.848 191.68,96.621 191.66,94.383 191.57,92.156 191.41,89.93 191.18,87.711 190.88,85.504 190.51,83.305 190.06,81.117 189.54,78.949 188.96,76.793 188.3,74.656 122.37,96.086 163.15,152.09 "
   style="stroke-width:0.75;stroke-linejoin:round"
   id="polygon27" />
<line
   x1="188.34"
   y1="117.43"
   x2="191.64"
   y2="118.5"
   id="line29"
   style="stroke-width:0.75;stroke-linecap:round" />
<text
   transform="matrix(0,0.6,0.6,0,199.04,119.57)"
   style="font-size:20px;fill:#000000;stroke:none;font-family:Helvetica, sans-serif"
   id="text31">3</text>

<polygon
   points="188.34,74.566 187.6,72.418 186.8,70.281 185.92,68.184 184.97,66.105 183.95,64.066 182.87,62.059 181.72,60.09 180.5,58.16 179.23,56.273 177.9,54.426 176.5,52.629 175.04,50.871 173.54,49.172 171.97,47.516 170.34,45.918 168.67,44.371 166.95,42.871 165.18,41.441 163.36,40.062 161.5,38.746 159.59,37.496 157.65,36.309 155.67,35.18 153.65,34.121 151.59,33.133 149.51,32.203 147.4,31.355 145.26,30.566 143.09,29.859 140.91,29.223 138.7,28.645 136.48,28.156 134.24,27.727 131.98,27.379 129.72,27.109 127.44,26.91 125.18,26.781 122.89,26.734 120.61,26.754 118.33,26.852 116.06,27.02 113.79,27.27 122.48,96.059 188.34,74.566 "
   style="fill:#ffff00;fill-rule:nonzero;stroke:#ffff00;stroke-width:0;stroke-linejoin:round"
   id="polygon33" />
<polygon
   points="188.34,74.566 187.6,72.418 186.8,70.281 185.92,68.184 184.97,66.105 183.95,64.066 182.87,62.059 181.72,60.09 180.5,58.16 179.23,56.273 177.9,54.426 176.5,52.629 175.04,50.871 173.54,49.172 171.97,47.516 170.34,45.918 168.67,44.371 166.95,42.871 165.18,41.441 163.36,40.062 161.5,38.746 159.59,37.496 157.65,36.309 155.67,35.18 153.65,34.121 151.59,33.133 149.51,32.203 147.4,31.355 145.26,30.566 143.09,29.859 140.91,29.223 138.7,28.645 136.48,28.156 134.24,27.727 131.98,27.379 129.72,27.109 127.44,26.91 125.18,26.781 122.89,26.734 120.61,26.754 118.33,26.852 116.06,27.02 113.79,27.27 122.48,96.059 188.34,74.566 "
   style="stroke-width:0.75;stroke-linejoin:round"
   id="polygon35" />
<line
   x1="159.55"
   y1="37.457001"
   x2="161.41"
   y2="34.527"
   id="line37"
   style="stroke-width:0.75;stroke-linecap:round" />
<text
   transform="matrix(0,0.6,0.6,0,167.48,24.938)"
   style="font-size:20px;fill:#000000;stroke:none;font-family:Helvetica, sans-serif"
   id="text39">4</text>

<polygon
   points="113.71,27.207 111.51,27.523 109.31,27.902 107.13,28.359 104.98,28.879 102.83,29.477 100.71,30.133 98.613,30.859 96.535,31.656 94.488,32.516 92.461,33.445 90.473,34.445 88.516,35.492 86.598,36.609 84.711,37.797 82.863,39.035 81.055,40.332 79.297,41.68 77.578,43.098 75.898,44.566 74.281,46.086 72.703,47.652 71.184,49.27 69.707,50.938 68.289,52.656 66.93,54.414 65.633,56.211 64.383,58.059 63.195,59.938 62.078,61.855 61.02,63.812 60.02,65.801 59.082,67.82 58.215,69.867 57.418,71.934 56.68,74.043 56.012,76.16 55.414,78.297 54.887,80.453 54.43,82.633 54.043,84.82 53.727,87.027 53.477,89.234 53.297,91.453 53.188,93.672 53.16,95.898 122.49,95.898 113.71,27.207 "
   style="fill:#000000;fill-rule:nonzero;stroke-width:0;stroke-linejoin:round"
   id="polygon41" />
<polygon
   points="113.71,27.207 111.51,27.523 109.31,27.902 107.13,28.359 104.98,28.879 102.83,29.477 100.71,30.133 98.613,30.859 96.535,31.656 94.488,32.516 92.461,33.445 90.473,34.445 88.516,35.492 86.598,36.609 84.711,37.797 82.863,39.035 81.055,40.332 79.297,41.68 77.578,43.098 75.898,44.566 74.281,46.086 72.703,47.652 71.184,49.27 69.707,50.938 68.289,52.656 66.93,54.414 65.633,56.211 64.383,58.059 63.195,59.938 62.078,61.855 61.02,63.812 60.02,65.801 59.082,67.82 58.215,69.867 57.418,71.934 56.68,74.043 56.012,76.16 55.414,78.297 54.887,80.453 54.43,82.633 54.043,84.82 53.727,87.027 53.477,89.234 53.297,91.453 53.188,93.672 53.16,95.898 122.49,95.898 113.71,27.207 "
   style="stroke-width:0.75;stroke-linejoin:round"
   id="polygon43" />
<line
   x1="70.390999"
   y1="50.147999"
   x2="67.792999"
   y2="47.859001"
   id="line45"
   style="stroke-width:0.75;stroke-linecap:round" />
<text
   transform="matrix(0,0.6,0.6,0,69.211,38.887)"
   style="font-size:20px;fill:#000000;stroke:none;font-family:Helvetica, sans-serif"
   id="text47">5</text>

<text
   transform="matrix(0,0.7,0.7,0,28.801,90.949)"
   style="font-size:20px;font-weight:bold;fill:#000000;stroke:none;font-family:Helvetica-Bold, Helvetica, sans-serif"
   id="text49">A</text>

<polygon
   points="271.82,52.047 387.36,52.047 387.36,64.227 271.82,64.227 271.82,52.047 "
   style="fill:#ff0000;fill-rule:nonzero;stroke:#ff0000;stroke-width:0"
   id="polygon51" />
<polygon
   points="265.02,73.969 387.36,73.969 387.36,86.148 265.02,86.148 265.02,73.969 "
   style="fill:#0000ff;fill-rule:nonzero;stroke:#0000ff;stroke-width:0"
   id="polygon53" />
<polygon
   points="251.43,95.887 387.36,95.887 387.36,108.07 251.43,108.07 251.43,95.887 "
   style="fill:#00ff00;fill-rule:nonzero;stroke:#00ff00;stroke-width:0"
   id="polygon55" />
<polygon
   points="237.84,117.81 387.36,117.81 387.36,129.99 237.84,129.99 237.84,117.81 "
   style="fill:#ffff00;fill-rule:nonzero;stroke:#ffff00;stroke-width:0"
   id="polygon57" />
<polygon
   points="231.04,139.73 387.36,139.73 387.36,151.91 231.04,151.91 231.04,139.73 "
   style="fill:#000000;fill-rule:nonzero;stroke-width:0"
   id="polygon59" />
<text
   transform="matrix(0,0.6,0.6,0,406.08,54.801)"
   style="font-size:20px;fill:#000000;stroke:none;font-family:Helvetica, sans-serif"
   id="text61">1</text>

<text
   transform="matrix(0,0.6,0.6,0,406.08,76.723)"
   style="font-size:20px;fill:#000000;stroke:none;font-family:Helvetica, sans-serif"
   id="text63">2</text>

<text
   transform="matrix(0,0.6,0.6,0,406.08,98.641)"
   style="font-size:20px;fill:#000000;stroke:none;font-family:Helvetica, sans-serif"
   id="text65">3</text>

<text
   transform="matrix(0,0.6,0.6,0,406.08,120.56)"
   style="font-size:20px;fill:#000000;stroke:none;font-family:Helvetica, sans-serif"
   id="text67">4</text>

<text
   transform="matrix(0,0.6,0.6,0,406.08,142.48)"
   style="font-size:20px;fill:#000000;stroke:none;font-family:Helvetica, sans-serif"
   id="text69">5</text>

<line
   x1="353.38"
   y1="37.438"
   x2="353.38"
   y2="168.96001"
   id="line71"
   style="stroke:#ffffff;stroke-width:0.75;stroke-linecap:round" />
<line
   x1="319.39001"
   y1="37.438"
   x2="319.39001"
   y2="168.96001"
   id="line73"
   style="stroke:#ffffff;stroke-width:0.75;stroke-linecap:round" />
<line
   x1="285.41"
   y1="37.438"
   x2="285.41"
   y2="168.96001"
   id="line75"
   style="stroke:#ffffff;stroke-width:0.75;stroke-linecap:round" />
<line
   x1="251.42"
   y1="37.438"
   x2="251.42"
   y2="168.96001"
   id="line77"
   style="stroke:#ffffff;stroke-width:0.75;stroke-linecap:round" />
<line
   x1="217.44"
   y1="37.438"
   x2="217.44"
   y2="168.96001"
   id="line79"
   style="stroke:#ffffff;stroke-width:0.75;stroke-linecap:round" />
<line
   x1="387.35999"
   y1="37.438"
   x2="217.45"
   y2="37.438"
   id="line81"
   style="stroke-width:0.75;stroke-linecap:round" />
<line
   x1="387.35999"
   y1="37.438"
   x2="387.35999"
   y2="30.238001"
   id="line83"
   style="stroke-width:0.75;stroke-linecap:round" />
<line
   x1="353.38"
   y1="37.438"
   x2="353.38"
   y2="30.238001"
   id="line85"
   style="stroke-width:0.75;stroke-linecap:round" />
<line
   x1="319.39001"
   y1="37.438"
   x2="319.39001"
   y2="30.238001"
   id="line87"
   style="stroke-width:0.75;stroke-linecap:round" />
<line
   x1="285.41"
   y1="37.438"
   x2="285.41"
   y2="30.238001"
   id="line89"
   style="stroke-width:0.75;stroke-linecap:round" />
<line
   x1="251.42"
   y1="37.438"
   x2="251.42"
   y2="30.238001"
   id="line91"
   style="stroke-width:0.75;stroke-linecap:round" />
<line
   x1="217.44"
   y1="37.438"
   x2="217.44"
   y2="30.238001"
   id="line93"
   style="stroke-width:0.75;stroke-linecap:round" />
<text
   transform="matrix(0,0.6,0.6,0,391.67,16.367)"
   style="font-size:20px;fill:#000000;stroke:none;font-family:Helvetica, sans-serif"
   id="text95">0</text>

<text
   transform="matrix(0,0.6,0.6,0,357.68,16.367)"
   style="font-size:20px;fill:#000000;stroke:none;font-family:Helvetica, sans-serif"
   id="text97">5</text>

<text
   transform="matrix(0,0.6,0.6,0,323.7,9.6953)"
   style="font-size:20px;fill:#000000;stroke:none;font-family:Helvetica, sans-serif"
   id="text99">10</text>

<text
   transform="matrix(0,0.6,0.6,0,289.72,9.6953)"
   style="font-size:20px;fill:#000000;stroke:none;font-family:Helvetica, sans-serif"
   id="text101">15</text>

<text
   transform="matrix(0,0.6,0.6,0,255.73,9.6953)"
   style="font-size:20px;fill:#000000;stroke:none;font-family:Helvetica, sans-serif"
   id="text103">20</text>

<text
   transform="matrix(0,0.6,0.6,0,221.75,9.6953)"
   style="font-size:20px;fill:#000000;stroke:none;font-family:Helvetica, sans-serif"
   id="text105">25</text>

<polygon
   points="53.07,288 53.098,290.23 53.207,292.45 53.387,294.68 53.637,296.9 53.953,299.11 54.352,301.3 54.809,303.49 55.348,305.65 55.945,307.8 56.613,309.93 57.363,312.03 58.172,314.12 59.039,316.17 59.977,318.2 60.984,320.18 62.051,322.14 63.18,324.07 64.367,325.96 65.625,327.8 66.934,329.61 68.301,331.38 69.73,333.08 71.207,334.76 72.746,336.38 74.324,337.95 75.961,339.46 77.641,340.93 79.367,342.35 81.145,343.7 82.953,345 84.812,346.23 86.711,347.41 88.648,348.53 90.605,349.58 92.613,350.57 94.641,351.48 96.699,352.34 98.789,353.14 100.9,353.86 122.33,287.92 53.07,288 "
   style="fill:#ff0000;fill-rule:nonzero;stroke:#ff0000;stroke-width:0;stroke-linejoin:round"
   id="polygon107" />
<polygon
   points="53.07,288 53.098,290.23 53.207,292.45 53.387,294.68 53.637,296.9 53.953,299.11 54.352,301.3 54.809,303.49 55.348,305.65 55.945,307.8 56.613,309.93 57.363,312.03 58.172,314.12 59.039,316.17 59.977,318.2 60.984,320.18 62.051,322.14 63.18,324.07 64.367,325.96 65.625,327.8 66.934,329.61 68.301,331.38 69.73,333.08 71.207,334.76 72.746,336.38 74.324,337.95 75.961,339.46 77.641,340.93 79.367,342.35 81.145,343.7 82.953,345 84.812,346.23 86.711,347.41 88.648,348.53 90.605,349.58 92.613,350.57 94.641,351.48 96.699,352.34 98.789,353.14 100.9,353.86 122.33,287.92 53.07,288 "
   style="stroke-width:0.75;stroke-linejoin:round"
   id="polygon109" />
<line
   x1="66.311996"
   y1="328.75"
   x2="63.504002"
   y2="330.79001"
   id="line111"
   style="stroke-width:0.75;stroke-linecap:round" />
<text
   transform="matrix(0,0.6,0.6,0,64.922,332.83)"
   style="font-size:20px;fill:#000000;stroke:none;font-family:Helvetica, sans-serif"
   id="text113">1</text>

<polygon
   points="100.97,353.94 103.11,354.59 105.27,355.17 107.43,355.69 109.62,356.14 111.82,356.51 114.03,356.82 116.25,357.04 118.47,357.2 120.7,357.29 122.94,357.31 125.16,357.26 127.39,357.13 129.62,356.93 131.82,356.66 134.03,356.32 136.23,355.92 138.41,355.44 140.57,354.89 142.71,354.28 144.83,353.59 146.94,352.83 149.01,352 151.05,351.12 153.07,350.16 155.05,349.14 157.01,348.05 158.91,346.91 160.79,345.71 162.63,344.44 164.43,343.11 166.18,341.73 167.89,340.29 169.54,338.79 171.15,337.25 172.71,335.65 174.22,334.01 175.67,332.31 177.07,330.57 178.41,328.79 122.32,288.04 100.97,353.94 "
   style="fill:#0000ff;fill-rule:nonzero;stroke:#0000ff;stroke-width:0;stroke-linejoin:round"
   id="polygon115" />
<polygon
   points="100.97,353.94 103.11,354.59 105.27,355.17 107.43,355.69 109.62,356.14 111.82,356.51 114.03,356.82 116.25,357.04 118.47,357.2 120.7,357.29 122.94,357.31 125.16,357.26 127.39,357.13 129.62,356.93 131.82,356.66 134.03,356.32 136.23,355.92 138.41,355.44 140.57,354.89 142.71,354.28 144.83,353.59 146.94,352.83 149.01,352 151.05,351.12 153.07,350.16 155.05,349.14 157.01,348.05 158.91,346.91 160.79,345.71 162.63,344.44 164.43,343.11 166.18,341.73 167.89,340.29 169.54,338.79 171.15,337.25 172.71,335.65 174.22,334.01 175.67,332.31 177.07,330.57 178.41,328.79 122.32,288.04 100.97,353.94 "
   style="stroke-width:0.75;stroke-linejoin:round"
   id="polygon117" />
<line
   x1="143.83"
   y1="353.94"
   x2="144.89999"
   y2="357.23001"
   id="line119"
   style="stroke-width:0.75;stroke-linecap:round" />
<text
   transform="matrix(0,0.6,0.6,0,150.19,360.53)"
   style="font-size:20px;fill:#000000;stroke:none;font-family:Helvetica, sans-serif"
   id="text121">2</text>

<polygon
   points="178.49,328.75 179.81,326.87 181.07,324.95 182.25,322.98 183.38,320.98 184.44,318.95 185.43,316.87 186.35,314.77 187.2,312.63 187.98,310.48 188.68,308.29 189.32,306.08 189.88,303.86 190.37,301.62 190.77,299.35 191.11,297.08 191.37,294.8 191.56,292.5 191.67,290.21 191.7,287.92 191.66,285.62 191.54,283.32 191.35,281.04 191.08,278.76 190.73,276.49 190.32,274.23 189.83,271.98 189.26,269.75 188.61,267.55 187.91,265.37 187.12,263.21 186.26,261.08 185.33,258.98 184.33,256.92 183.26,254.88 182.13,252.88 180.93,250.92 122.39,288.07 178.49,328.75 "
   style="fill:#00ff00;fill-rule:nonzero;stroke:#00ff00;stroke-width:0;stroke-linejoin:round"
   id="polygon123" />
<polygon
   points="178.49,328.75 179.81,326.87 181.07,324.95 182.25,322.98 183.38,320.98 184.44,318.95 185.43,316.87 186.35,314.77 187.2,312.63 187.98,310.48 188.68,308.29 189.32,306.08 189.88,303.86 190.37,301.62 190.77,299.35 191.11,297.08 191.37,294.8 191.56,292.5 191.67,290.21 191.7,287.92 191.66,285.62 191.54,283.32 191.35,281.04 191.08,278.76 190.73,276.49 190.32,274.23 189.83,271.98 189.26,269.75 188.61,267.55 187.91,265.37 187.12,263.21 186.26,261.08 185.33,258.98 184.33,256.92 183.26,254.88 182.13,252.88 180.93,250.92 122.39,288.07 178.49,328.75 "
   style="stroke-width:0.75;stroke-linejoin:round"
   id="polygon125" />
<line
   x1="191.7"
   y1="290.17999"
   x2="195.16"
   y2="290.29001"
   id="line127"
   style="stroke-width:0.75;stroke-linecap:round" />
<text
   transform="matrix(0,0.6,0.6,0,202.73,290.4)"
   style="font-size:20px;fill:#000000;stroke:none;font-family:Helvetica, sans-serif"
   id="text129">3</text>

<polygon
   points="180.94,250.85 179.71,248.98 178.44,247.16 177.1,245.39 175.7,243.65 174.24,241.96 172.73,240.32 171.18,238.73 169.57,237.19 167.91,235.7 166.2,234.26 164.45,232.88 162.66,231.57 160.82,230.3 158.95,229.09 157.04,227.95 155.08,226.88 153.1,225.85 151.09,224.9 149.05,224.01 146.97,223.2 144.87,222.45 142.75,221.76 140.62,221.14 138.45,220.59 136.28,220.12 134.08,219.71 131.88,219.37 129.66,219.1 127.44,218.91 125.22,218.79 122.99,218.74 120.77,218.76 118.54,218.85 116.32,219 114.1,219.23 111.89,219.54 109.69,219.92 107.51,220.35 105.34,220.88 103.19,221.45 101.06,222.11 122.48,288.05 180.94,250.85 "
   style="fill:#ffff00;fill-rule:nonzero;stroke:#ffff00;stroke-width:0;stroke-linejoin:round"
   id="polygon131" />
<polygon
   points="180.94,250.85 179.71,248.98 178.44,247.16 177.1,245.39 175.7,243.65 174.24,241.96 172.73,240.32 171.18,238.73 169.57,237.19 167.91,235.7 166.2,234.26 164.45,232.88 162.66,231.57 160.82,230.3 158.95,229.09 157.04,227.95 155.08,226.88 153.1,225.85 151.09,224.9 149.05,224.01 146.97,223.2 144.87,222.45 142.75,221.76 140.62,221.14 138.45,220.59 136.28,220.12 134.08,219.71 131.88,219.37 129.66,219.1 127.44,218.91 125.22,218.79 122.99,218.74 120.77,218.76 118.54,218.85 116.32,219 114.1,219.23 111.89,219.54 109.69,219.92 107.51,220.35 105.34,220.88 103.19,221.45 101.06,222.11 122.48,288.05 180.94,250.85 "
   style="stroke-width:0.75;stroke-linejoin:round"
   id="polygon133" />
<line
   x1="145.89"
   y1="222.77"
   x2="147.06"
   y2="219.5"
   id="line135"
   style="stroke-width:0.75;stroke-linecap:round" />
<text
   transform="matrix(0,0.6,0.6,0,152.45,209.57)"
   style="font-size:20px;fill:#000000;stroke:none;font-family:Helvetica, sans-serif"
   id="text137">4</text>

<polygon
   points="100.97,222.06 98.816,222.8 96.668,223.61 94.559,224.5 92.48,225.45 90.422,226.48 88.414,227.57 86.438,228.71 84.5,229.94 82.602,231.22 80.754,232.57 78.945,233.97 77.176,235.44 75.469,236.96 73.812,238.54 72.203,240.17 70.656,241.85 69.156,243.59 67.727,245.37 66.348,247.21 65.031,249.08 63.781,251 62.594,252.95 61.465,254.95 60.418,256.99 59.43,259.05 58.5,261.15 57.652,263.28 56.875,265.43 56.168,267.61 55.539,269.81 54.98,272.03 54.492,274.27 54.074,276.53 53.734,278.8 53.477,281.07 53.289,283.36 53.172,285.64 53.145,287.93 122.47,287.93 100.97,222.06 "
   style="fill:#000000;fill-rule:nonzero;stroke-width:0;stroke-linejoin:round"
   id="polygon139" />
<polygon
   points="100.97,222.06 98.816,222.8 96.668,223.61 94.559,224.5 92.48,225.45 90.422,226.48 88.414,227.57 86.438,228.71 84.5,229.94 82.602,231.22 80.754,232.57 78.945,233.97 77.176,235.44 75.469,236.96 73.812,238.54 72.203,240.17 70.656,241.85 69.156,243.59 67.727,245.37 66.348,247.21 65.031,249.08 63.781,251 62.594,252.95 61.465,254.95 60.418,256.99 59.43,259.05 58.5,261.15 57.652,263.28 56.875,265.43 56.168,267.61 55.539,269.81 54.98,272.03 54.492,274.27 54.074,276.53 53.734,278.8 53.477,281.07 53.289,283.36 53.172,285.64 53.145,287.93 122.47,287.93 100.97,222.06 "
   style="stroke-width:0.75;stroke-linejoin:round"
   id="polygon141" />
<line
   x1="66.311996"
   y1="247.25"
   x2="63.504002"
   y2="245.21001"
   id="line143"
   style="stroke-width:0.75;stroke-linecap:round" />
<text
   transform="matrix(0,0.6,0.6,0,64.711,236.5)"
   style="font-size:20px;fill:#000000;stroke:none;font-family:Helvetica, sans-serif"
   id="text145">5</text>

<text
   transform="matrix(0,0.7,0.7,0,28.801,282.95)"
   style="font-size:20px;font-weight:bold;fill:#000000;stroke:none;font-family:Helvetica-Bold, Helvetica, sans-serif"
   id="text147">B</text>

<polygon
   points="251.43,244.05 387.36,244.05 387.36,256.23 251.43,256.23 251.43,244.05 "
   style="fill:#ff0000;fill-rule:nonzero;stroke:#ff0000;stroke-width:0"
   id="polygon149" />
<polygon
   points="251.43,265.97 387.36,265.97 387.36,278.15 251.43,278.15 251.43,265.97 "
   style="fill:#0000ff;fill-rule:nonzero;stroke:#0000ff;stroke-width:0"
   id="polygon151" />
<polygon
   points="258.23,287.89 387.36,287.89 387.36,300.07 258.23,300.07 258.23,287.89 "
   style="fill:#00ff00;fill-rule:nonzero;stroke:#00ff00;stroke-width:0"
   id="polygon153" />
<polygon
   points="244.64,309.81 387.36,309.81 387.36,321.99 244.64,321.99 244.64,309.81 "
   style="fill:#ffff00;fill-rule:nonzero;stroke:#ffff00;stroke-width:0"
   id="polygon155" />
<polygon
   points="251.43,331.73 387.36,331.73 387.36,343.91 251.43,343.91 251.43,331.73 "
   style="fill:#000000;fill-rule:nonzero;stroke-width:0"
   id="polygon157" />
<text
   transform="matrix(0,0.6,0.6,0,406.08,246.8)"
   style="font-size:20px;fill:#000000;stroke:none;font-family:Helvetica, sans-serif"
   id="text159">1</text>

<text
   transform="matrix(0,0.6,0.6,0,406.08,268.72)"
   style="font-size:20px;fill:#000000;stroke:none;font-family:Helvetica, sans-serif"
   id="text161">2</text>

<text
   transform="matrix(0,0.6,0.6,0,406.08,290.64)"
   style="font-size:20px;fill:#000000;stroke:none;font-family:Helvetica, sans-serif"
   id="text163">3</text>

<text
   transform="matrix(0,0.6,0.6,0,406.08,312.56)"
   style="font-size:20px;fill:#000000;stroke:none;font-family:Helvetica, sans-serif"
   id="text165">4</text>

<text
   transform="matrix(0,0.6,0.6,0,406.08,334.48)"
   style="font-size:20px;fill:#000000;stroke:none;font-family:Helvetica, sans-serif"
   id="text167">5</text>

<line
   x1="353.38"
   y1="229.44"
   x2="353.38"
   y2="360.95999"
   id="line169"
   style="stroke:#ffffff;stroke-width:0.75;stroke-linecap:round" />
<line
   x1="319.39001"
   y1="229.44"
   x2="319.39001"
   y2="360.95999"
   id="line171"
   style="stroke:#ffffff;stroke-width:0.75;stroke-linecap:round" />
<line
   x1="285.41"
   y1="229.44"
   x2="285.41"
   y2="360.95999"
   id="line173"
   style="stroke:#ffffff;stroke-width:0.75;stroke-linecap:round" />
<line
   x1="251.42"
   y1="229.44"
   x2="251.42"
   y2="360.95999"
   id="line175"
   style="stroke:#ffffff;stroke-width:0.75;stroke-linecap:round" />
<line
   x1="217.44"
   y1="229.44"
   x2="217.44"
   y2="360.95999"
   id="line177"
   style="stroke:#ffffff;stroke-width:0.75;stroke-linecap:round" />
<line
   x1="387.35999"
   y1="229.44"
   x2="217.45"
   y2="229.44"
   id="line179"
   style="stroke-width:0.75;stroke-linecap:round" />
<line
   x1="387.35999"
   y1="229.44"
   x2="387.35999"
   y2="222.24001"
   id="line181"
   style="stroke-width:0.75;stroke-linecap:round" />
<line
   x1="353.38"
   y1="229.44"
   x2="353.38"
   y2="222.24001"
   id="line183"
   style="stroke-width:0.75;stroke-linecap:round" />
<line
   x1="319.39001"
   y1="229.44"
   x2="319.39001"
   y2="222.24001"
   id="line185"
   style="stroke-width:0.75;stroke-linecap:round" />
<line
   x1="285.41"
   y1="229.44"
   x2="285.41"
   y2="222.24001"
   id="line187"
   style="stroke-width:0.75;stroke-linecap:round" />
<line
   x1="251.42"
   y1="229.44"
   x2="251.42"
   y2="222.24001"
   id="line189"
   style="stroke-width:0.75;stroke-linecap:round" />
<line
   x1="217.44"
   y1="229.44"
   x2="217.44"
   y2="222.24001"
   id="line191"
   style="stroke-width:0.75;stroke-linecap:round" />
<text
   transform="matrix(0,0.6,0.6,0,391.67,208.37)"
   style="font-size:20px;fill:#000000;stroke:none;font-family:Helvetica, sans-serif"
   id="text193">0</text>

<text
   transform="matrix(0,0.6,0.6,0,357.68,208.37)"
   style="font-size:20px;fill:#000000;stroke:none;font-family:Helvetica, sans-serif"
   id="text195">5</text>

<text
   transform="matrix(0,0.6,0.6,0,323.7,201.7)"
   style="font-size:20px;fill:#000000;stroke:none;font-family:Helvetica, sans-serif"
   id="text197">10</text>

<text
   transform="matrix(0,0.6,0.6,0,289.72,201.7)"
   style="font-size:20px;fill:#000000;stroke:none;font-family:Helvetica, sans-serif"
   id="text199">15</text>

<text
   transform="matrix(0,0.6,0.6,0,255.73,201.7)"
   style="font-size:20px;fill:#000000;stroke:none;font-family:Helvetica, sans-serif"
   id="text201">20</text>

<text
   transform="matrix(0,0.6,0.6,0,221.75,201.7)"
   style="font-size:20px;fill:#000000;stroke:none;font-family:Helvetica, sans-serif"
   id="text203">25</text>

<polygon
   points="53.07,480 53.098,482.23 53.207,484.45 53.387,486.66 53.637,488.87 53.953,491.08 54.34,493.27 54.797,495.45 55.324,497.6 55.922,499.74 56.59,501.86 57.328,503.96 58.125,506.03 58.992,508.08 59.93,510.1 60.93,512.09 61.988,514.04 63.105,515.96 64.293,517.84 65.543,519.69 66.84,521.48 68.199,523.24 69.617,524.96 71.094,526.63 72.613,528.25 74.191,529.81 75.809,531.33 77.488,532.8 79.207,534.22 80.965,535.57 82.773,536.86 84.621,538.1 86.508,539.29 88.426,540.41 90.383,541.45 92.371,542.45 94.398,543.38 96.445,544.24 98.523,545.04 100.62,545.77 102.74,546.42 104.89,547.02 107.04,547.54 109.22,548 111.42,548.38 113.62,548.69 122.31,479.9 53.07,480 "
   style="fill:#ff0000;fill-rule:nonzero;stroke:#ff0000;stroke-width:0;stroke-linejoin:round"
   id="polygon205" />
<polygon
   points="53.07,480 53.098,482.23 53.207,484.45 53.387,486.66 53.637,488.87 53.953,491.08 54.34,493.27 54.797,495.45 55.324,497.6 55.922,499.74 56.59,501.86 57.328,503.96 58.125,506.03 58.992,508.08 59.93,510.1 60.93,512.09 61.988,514.04 63.105,515.96 64.293,517.84 65.543,519.69 66.84,521.48 68.199,523.24 69.617,524.96 71.094,526.63 72.613,528.25 74.191,529.81 75.809,531.33 77.488,532.8 79.207,534.22 80.965,535.57 82.773,536.86 84.621,538.1 86.508,539.29 88.426,540.41 90.383,541.45 92.371,542.45 94.398,543.38 96.445,544.24 98.523,545.04 100.62,545.77 102.74,546.42 104.89,547.02 107.04,547.54 109.22,548 111.42,548.38 113.62,548.69 122.31,479.9 53.07,480 "
   style="stroke-width:0.75;stroke-linejoin:round"
   id="polygon207" />
<line
   x1="70.390999"
   y1="525.84998"
   x2="67.792999"
   y2="528.14001"
   id="line209"
   style="stroke-width:0.75;stroke-linecap:round" />
<text
   transform="matrix(0,0.6,0.6,0,69.41,530.44)"
   style="font-size:20px;fill:#000000;stroke:none;font-family:Helvetica, sans-serif"
   id="text211">1</text>

<polygon
   points="113.71,548.79 115.93,549.03 118.15,549.2 120.37,549.29 122.59,549.32 124.82,549.28 127.05,549.17 129.27,548.98 131.47,548.73 133.68,548.41 135.87,548.01 138.05,547.54 140.2,547 142.34,546.4 144.47,545.73 146.57,544.98 148.65,544.17 150.68,543.29 152.7,542.35 154.69,541.34 156.65,540.28 158.55,539.15 160.44,537.96 162.28,536.7 164.08,535.4 165.84,534.03 167.54,532.6 169.21,531.12 170.83,529.59 172.39,528.02 173.91,526.38 175.36,524.7 176.77,522.97 178.12,521.2 179.41,519.4 180.64,517.53 181.82,515.65 182.93,513.72 183.98,511.75 184.96,509.75 185.88,507.72 186.74,505.68 187.53,503.59 188.25,501.49 122.31,480.06 113.71,548.79 "
   style="fill:#0000ff;fill-rule:nonzero;stroke:#0000ff;stroke-width:0;stroke-linejoin:round"
   id="polygon213" />
<polygon
   points="113.71,548.79 115.93,549.03 118.15,549.2 120.37,549.29 122.59,549.32 124.82,549.28 127.05,549.17 129.27,548.98 131.47,548.73 133.68,548.41 135.87,548.01 138.05,547.54 140.2,547 142.34,546.4 144.47,545.73 146.57,544.98 148.65,544.17 150.68,543.29 152.7,542.35 154.69,541.34 156.65,540.28 158.55,539.15 160.44,537.96 162.28,536.7 164.08,535.4 165.84,534.03 167.54,532.6 169.21,531.12 170.83,529.59 172.39,528.02 173.91,526.38 175.36,524.7 176.77,522.97 178.12,521.2 179.41,519.4 180.64,517.53 181.82,515.65 182.93,513.72 183.98,511.75 184.96,509.75 185.88,507.72 186.74,505.68 187.53,503.59 188.25,501.49 122.31,480.06 113.71,548.79 "
   style="stroke-width:0.75;stroke-linejoin:round"
   id="polygon215" />
<line
   x1="159.55"
   y1="538.53998"
   x2="161.41"
   y2="541.46997"
   id="line217"
   style="stroke-width:0.75;stroke-linecap:round" />
<text
   transform="matrix(0,0.6,0.6,0,167.48,544.39)"
   style="font-size:20px;fill:#000000;stroke:none;font-family:Helvetica, sans-serif"
   id="text219">2</text>

<polygon
   points="188.34,501.43 189,499.29 189.58,497.14 190.1,494.97 190.55,492.78 190.91,490.58 191.22,488.38 191.45,486.16 191.6,483.93 191.7,481.7 191.71,479.46 191.67,477.24 191.54,475.01 191.34,472.79 191.07,470.58 190.73,468.37 190.32,466.17 189.85,463.99 189.3,461.84 188.68,459.69 188,457.57 187.24,455.46 186.41,453.39 185.52,451.35 184.57,449.33 183.55,447.35 182.46,445.39 181.32,443.49 180.11,441.61 178.84,439.77 177.52,437.97 176.14,436.22 174.7,434.52 173.2,432.86 171.65,431.25 170.05,429.69 168.42,428.18 166.72,426.73 164.98,425.34 163.19,424 122.44,480.09 188.34,501.43 "
   style="fill:#00ff00;fill-rule:nonzero;stroke:#00ff00;stroke-width:0;stroke-linejoin:round"
   id="polygon221" />
<polygon
   points="188.34,501.43 189,499.29 189.58,497.14 190.1,494.97 190.55,492.78 190.91,490.58 191.22,488.38 191.45,486.16 191.6,483.93 191.7,481.7 191.71,479.46 191.67,477.24 191.54,475.01 191.34,472.79 191.07,470.58 190.73,468.37 190.32,466.17 189.85,463.99 189.3,461.84 188.68,459.69 188,457.57 187.24,455.46 186.41,453.39 185.52,451.35 184.57,449.33 183.55,447.35 182.46,445.39 181.32,443.49 180.11,441.61 178.84,439.77 177.52,437.97 176.14,436.22 174.7,434.52 173.2,432.86 171.65,431.25 170.05,429.69 168.42,428.18 166.72,426.73 164.98,425.34 163.19,424 122.44,480.09 188.34,501.43 "
   style="stroke-width:0.75;stroke-linejoin:round"
   id="polygon223" />
<line
   x1="188.34"
   y1="458.57001"
   x2="191.64"
   y2="457.5"
   id="line225"
   style="stroke-width:0.75;stroke-linecap:round" />
<text
   transform="matrix(0,0.6,0.6,0,199.04,449.76)"
   style="font-size:20px;fill:#000000;stroke:none;font-family:Helvetica, sans-serif"
   id="text227">3</text>

<polygon
   points="163.15,423.91 161.27,422.58 159.34,421.32 157.37,420.13 155.36,419 153.31,417.95 151.23,416.95 149.12,416.03 146.99,415.18 144.82,414.39 142.62,413.69 140.41,413.05 138.18,412.5 135.92,412.01 133.66,411.6 131.37,411.27 129.08,411.02 126.79,410.83 124.49,410.73 122.18,410.7 119.88,410.74 117.59,410.87 115.29,411.07 113,411.34 110.72,411.7 108.45,412.12 106.2,412.62 103.98,413.19 101.77,413.85 99.582,414.57 97.414,415.36 95.285,416.23 93.176,417.17 91.109,418.18 89.07,419.24 122.47,480 163.15,423.91 "
   style="fill:#ffff00;fill-rule:nonzero;stroke:#ffff00;stroke-width:0;stroke-linejoin:round"
   id="polygon229" />
<polygon
   points="163.15,423.91 161.27,422.58 159.34,421.32 157.37,420.13 155.36,419 153.31,417.95 151.23,416.95 149.12,416.03 146.99,415.18 144.82,414.39 142.62,413.69 140.41,413.05 138.18,412.5 135.92,412.01 133.66,411.6 131.37,411.27 129.08,411.02 126.79,410.83 124.49,410.73 122.18,410.7 119.88,410.74 117.59,410.87 115.29,411.07 113,411.34 110.72,411.7 108.45,412.12 106.2,412.62 103.98,413.19 101.77,413.85 99.582,414.57 97.414,415.36 95.285,416.23 93.176,417.17 91.109,418.18 89.07,419.24 122.47,480 163.15,423.91 "
   style="stroke-width:0.75;stroke-linejoin:round"
   id="polygon231" />
<line
   x1="126.75"
   y1="410.79999"
   x2="126.97"
   y2="407.34"
   id="line233"
   style="stroke-width:0.75;stroke-linecap:round" />
<text
   transform="matrix(0,0.6,0.6,0,131.41,397.21)"
   style="font-size:20px;fill:#000000;stroke:none;font-family:Helvetica, sans-serif"
   id="text235">4</text>

<polygon
   points="89,419.24 87.051,420.36 85.145,421.52 83.277,422.76 81.438,424.05 79.648,425.41 77.91,426.82 76.211,428.29 74.562,429.8 72.973,431.38 71.426,433 69.938,434.68 68.5,436.4 67.113,438.17 65.797,439.98 64.539,441.82 63.332,443.72 62.195,445.65 61.117,447.61 60.098,449.62 59.148,451.64 58.27,453.7 57.461,455.79 56.711,457.91 56.031,460.05 55.422,462.2 54.883,464.37 54.414,466.57 54.016,468.78 53.699,471 53.441,473.22 53.262,475.45 53.152,477.7 53.125,479.94 122.45,479.94 89,419.24 "
   style="fill:#000000;fill-rule:nonzero;stroke-width:0;stroke-linejoin:round"
   id="polygon237" />
<polygon
   points="89,419.24 87.051,420.36 85.145,421.52 83.277,422.76 81.438,424.05 79.648,425.41 77.91,426.82 76.211,428.29 74.562,429.8 72.973,431.38 71.426,433 69.938,434.68 68.5,436.4 67.113,438.17 65.797,439.98 64.539,441.82 63.332,443.72 62.195,445.65 61.117,447.61 60.098,449.62 59.148,451.64 58.27,453.7 57.461,455.79 56.711,457.91 56.031,460.05 55.422,462.2 54.883,464.37 54.414,466.57 54.016,468.78 53.699,471 53.441,473.22 53.262,475.45 53.152,477.7 53.125,479.94 122.45,479.94 89,419.24 "
   style="stroke-width:0.75;stroke-linejoin:round"
   id="polygon239" />
<line
   x1="62.723"
   y1="444.70999"
   x2="59.745998"
   y2="442.94"
   id="line241"
   style="stroke-width:0.75;stroke-linecap:round" />
<text
   transform="matrix(0,0.6,0.6,0,60.773,434.51)"
   style="font-size:20px;fill:#000000;stroke:none;font-family:Helvetica, sans-serif"
   id="text243">5</text>

<text
   transform="matrix(0,0.7,0.7,0,28.801,474.95)"
   style="font-size:20px;font-weight:bold;fill:#000000;stroke:none;font-family:Helvetica-Bold, Helvetica, sans-serif"
   id="text245">C</text>

<polygon
   points="231.04,436.05 387.36,436.05 387.36,448.23 231.04,448.23 231.04,436.05 "
   style="fill:#ff0000;fill-rule:nonzero;stroke:#ff0000;stroke-width:0"
   id="polygon247" />
<polygon
   points="237.84,457.97 387.36,457.97 387.36,470.15 237.84,470.15 237.84,457.97 "
   style="fill:#0000ff;fill-rule:nonzero;stroke:#0000ff;stroke-width:0"
   id="polygon249" />
<polygon
   points="251.43,479.89 387.36,479.89 387.36,492.07 251.43,492.07 251.43,479.89 "
   style="fill:#00ff00;fill-rule:nonzero;stroke:#00ff00;stroke-width:0"
   id="polygon251" />
<polygon
   points="265.02,501.81 387.36,501.81 387.36,513.99 265.02,513.99 265.02,501.81 "
   style="fill:#ffff00;fill-rule:nonzero;stroke:#ffff00;stroke-width:0"
   id="polygon253" />
<polygon
   points="271.82,523.73 387.36,523.73 387.36,535.91 271.82,535.91 271.82,523.73 "
   style="fill:#000000;fill-rule:nonzero;stroke-width:0"
   id="polygon255" />
<text
   transform="matrix(0,0.6,0.6,0,406.08,438.8)"
   style="font-size:20px;fill:#000000;stroke:none;font-family:Helvetica, sans-serif"
   id="text257">1</text>

<text
   transform="matrix(0,0.6,0.6,0,406.08,460.72)"
   style="font-size:20px;fill:#000000;stroke:none;font-family:Helvetica, sans-serif"
   id="text259">2</text>

<text
   transform="matrix(0,0.6,0.6,0,406.08,482.64)"
   style="font-size:20px;fill:#000000;stroke:none;font-family:Helvetica, sans-serif"
   id="text261">3</text>

<text
   transform="matrix(0,0.6,0.6,0,406.08,504.56)"
   style="font-size:20px;fill:#000000;stroke:none;font-family:Helvetica, sans-serif"
   id="text263">4</text>

<text
   transform="matrix(0,0.6,0.6,0,406.08,526.48)"
   style="font-size:20px;fill:#000000;stroke:none;font-family:Helvetica, sans-serif"
   id="text265">5</text>

<line
   x1="353.38"
   y1="421.44"
   x2="353.38"
   y2="552.96002"
   id="line267"
   style="stroke:#ffffff;stroke-width:0.75;stroke-linecap:round" />
<line
   x1="319.39001"
   y1="421.44"
   x2="319.39001"
   y2="552.96002"
   id="line269"
   style="stroke:#ffffff;stroke-width:0.75;stroke-linecap:round" />
<line
   x1="285.41"
   y1="421.44"
   x2="285.41"
   y2="552.96002"
   id="line271"
   style="stroke:#ffffff;stroke-width:0.75;stroke-linecap:round" />
<line
   x1="251.42"
   y1="421.44"
   x2="251.42"
   y2="552.96002"
   id="line273"
   style="stroke:#ffffff;stroke-width:0.75;stroke-linecap:round" />
<line
   x1="217.44"
   y1="421.44"
   x2="217.44"
   y2="552.96002"
   id="line275"
   style="stroke:#ffffff;stroke-width:0.75;stroke-linecap:round" />
<line
   x1="387.35999"
   y1="421.44"
   x2="217.45"
   y2="421.44"
   id="line277"
   style="stroke-width:0.75;stroke-linecap:round" />
<line
   x1="387.35999"
   y1="421.44"
   x2="387.35999"
   y2="414.23999"
   id="line279"
   style="stroke-width:0.75;stroke-linecap:round" />
<line
   x1="353.38"
   y1="421.44"
   x2="353.38"
   y2="414.23999"
   id="line281"
   style="stroke-width:0.75;stroke-linecap:round" />
<line
   x1="319.39001"
   y1="421.44"
   x2="319.39001"
   y2="414.23999"
   id="line283"
   style="stroke-width:0.75;stroke-linecap:round" />
<line
   x1="285.41"
   y1="421.44"
   x2="285.41"
   y2="414.23999"
   id="line285"
   style="stroke-width:0.75;stroke-linecap:round" />
<line
   x1="251.42"
   y1="421.44"
   x2="251.42"
   y2="414.23999"
   id="line287"
   style="stroke-width:0.75;stroke-linecap:round" />
<line
   x1="217.44"
   y1="421.44"
   x2="217.44"
   y2="414.23999"
   id="line289"
   style="stroke-width:0.75;stroke-linecap:round" />
<text
   transform="matrix(0,0.6,0.6,0,391.67,400.37)"
   style="font-size:20px;fill:#000000;stroke:none;font-family:Helvetica, sans-serif"
   id="text291">0</text>

<text
   transform="matrix(0,0.6,0.6,0,357.68,400.37)"
   style="font-size:20px;fill:#000000;stroke:none;font-family:Helvetica, sans-serif"
   id="text293">5</text>

<text
   transform="matrix(0,0.6,0.6,0,323.7,393.7)"
   style="font-size:20px;fill:#000000;stroke:none;font-family:Helvetica, sans-serif"
   id="text295">10</text>

<text
   transform="matrix(0,0.6,0.6,0,289.72,393.7)"
   style="font-size:20px;fill:#000000;stroke:none;font-family:Helvetica, sans-serif"
   id="text297">15</text>

<text
   transform="matrix(0,0.6,0.6,0,255.73,393.7)"
   style="font-size:20px;fill:#000000;stroke:none;font-family:Helvetica, sans-serif"
   id="text299">20</text>

<text
   transform="matrix(0,0.6,0.6,0,221.75,393.7)"
   style="font-size:20px;fill:#000000;stroke:none;font-family:Helvetica, sans-serif"
   id="text301">25</text>

</g></svg>
